<?xml version="1.0" encoding="utf-8"?>
<!-- Generator: Adobe Illustrator 17.0.0, SVG Export Plug-In . SVG Version: 6.00 Build 0)  -->
<!DOCTYPE svg PUBLIC "-//W3C//DTD SVG 1.0//EN" "http://www.w3.org/TR/2001/REC-SVG-20010904/DTD/svg10.dtd">
<svg version="1.0" id="Camada_1" xmlns="http://www.w3.org/2000/svg" xmlns:xlink="http://www.w3.org/1999/xlink" x="0px" y="0px"
	 width="841.89px" height="134.993px" viewBox="0 0 841.89 134.993" enable-background="new 0 0 841.89 134.993"
	 xml:space="preserve">
<g>
	<g>
		<path fill="#453F42" d="M131.219,52.298V42.32h13.156V20.96h10.938v21.36h19.513v9.978h-19.513v46.046
			c0,3.844,0.8,6.541,2.402,8.094c1.601,1.552,4.422,2.328,8.463,2.328c3.104,0,5.986-0.592,8.647-1.774v10.274
			c-3.204,1.182-6.406,1.773-9.608,1.773c-0.148,0-0.271,0-0.37,0c-2.021,0-3.991-0.222-5.913-0.665
			c-1.921-0.443-4.09-1.318-6.504-2.624c-2.415-1.305-4.361-3.498-5.839-6.578c-1.479-3.079-2.217-6.885-2.217-11.419V52.298
			H131.219z"/>
		<path fill="#453F42" d="M180.565,117.857V48.278c11.382-4.76,23.602-7.141,36.66-7.141v10.273
			c-8.255,0.199-16.829,1.507-25.721,3.927v62.519H180.565z"/>
		<path fill="#453F42" d="M216.607,94.649c0-3.396,0.628-6.438,1.885-9.13c1.257-2.691,2.796-4.874,4.62-6.547
			c1.822-1.674,4.139-3.104,6.948-4.293s5.296-2.062,7.465-2.619c2.167-0.558,4.742-0.983,7.724-1.274
			c2.98-0.291,5.1-0.46,6.356-0.51c1.256-0.048,2.746-0.074,4.471-0.074l12.122,0.722c0-6.856-1.857-11.749-5.57-14.677
			c-3.714-2.927-9.21-4.392-16.489-4.392c-8.176,0-15.539,1.208-22.089,3.622V44.907c7.437-2.611,14.996-3.917,22.679-3.917
			c10.581,0,18.651,2.674,24.212,8.02c5.562,5.347,8.343,13.169,8.343,23.467v22.69c0,4.829-1.12,8.956-3.359,12.38
			c-2.239,3.426-5.118,5.901-8.637,7.428c-3.52,1.528-6.817,2.587-9.894,3.179c-3.077,0.591-6.115,0.887-9.116,0.887
			c-2.319,0-4.699-0.149-7.141-0.444c-2.442-0.297-5.205-0.977-8.289-2.039s-5.759-2.421-8.027-4.077
			c-2.269-1.656-4.206-4.028-5.809-7.117C217.408,102.273,216.607,98.702,216.607,94.649z M227.546,94.649
			c0,9.412,6.837,14.117,20.51,14.117c0.048,0,0.123,0,0.221,0c13.377,0,20.068-4.559,20.068-13.676V80.606
			c-3.345-0.591-7.821-0.887-13.428-0.887C236.669,79.719,227.546,84.697,227.546,94.649z"/>
		<path fill="#453F42" d="M285.539,79.127c0-7.489,1.01-13.858,3.032-19.105c2.022-5.248,4.822-9.177,8.397-11.789
			c3.576-2.611,7.213-4.446,10.913-5.506c3.699-1.059,7.767-1.589,12.207-1.589c6.641,0,12.887,0.961,18.741,2.882V13.569h10.938
			v81.745c0,2.021-0.297,4.091-0.888,6.209c-0.592,2.119-1.826,4.645-3.7,7.575c-1.875,2.933-5.083,5.322-9.621,7.17
			s-10.138,2.771-16.798,2.771c-2.812,0-5.562-0.247-8.25-0.739s-5.599-1.601-8.731-3.326c-3.132-1.724-5.833-3.966-8.101-6.726
			c-2.27-2.759-4.193-6.64-5.771-11.641C286.328,91.607,285.539,85.78,285.539,79.127z M296.478,79.127
			c0,6.356,0.688,11.678,2.066,15.965c1.377,4.287,3.271,7.367,5.681,9.239c2.41,1.873,4.722,3.13,6.936,3.77
			c2.212,0.641,4.746,0.961,7.599,0.961c13.379,0,20.069-4.436,20.069-13.305V54.885c-6.148-2.513-12.396-3.77-18.741-3.77
			c-8.264,0-14.265,2.217-18.003,6.652S296.478,69.323,296.478,79.127z"/>
		<path fill="#453F42" d="M356.91,81.049c0-0.098,0-0.271,0-0.518c0-0.246,0-0.443,0-0.591c0-25.967,11.024-38.951,33.075-38.951
			c4.605,0,8.783,0.728,12.531,2.181c3.749,1.454,6.725,3.167,8.931,5.137c2.205,1.971,4.14,4.545,5.807,7.724
			c1.665,3.178,2.854,5.876,3.565,8.093c0.71,2.217,1.261,4.903,1.653,8.056c0.392,3.056,0.588,4.978,0.588,5.765v3.253l-0.29,5.321
			h-54.921c0.691,7.588,3.01,13.095,6.958,16.519c3.949,3.426,9.798,5.137,17.547,5.137c10.949,0,19.567-1.872,25.853-5.617v11.234
			c-7.269,3.5-16.083,5.248-26.444,5.248c-0.148,0-0.297,0-0.444,0c-4.421,0-8.473-0.53-12.157-1.589
			c-3.684-1.06-7.307-2.895-10.869-5.507c-3.562-2.611-6.348-6.541-8.362-11.788C357.916,94.907,356.91,88.539,356.91,81.049z
			 M367.848,76.836h44.272c0-1.724-0.21-3.646-0.629-5.765c-0.42-2.118-1.259-4.841-2.518-8.167
			c-1.259-3.326-3.529-6.098-6.811-8.315c-3.282-2.217-7.342-3.326-12.178-3.326c-7.502,0-12.943,1.947-16.325,5.839
			C370.278,60.995,368.341,67.573,367.848,76.836z"/>
		<path fill="#36A9E1" d="M429.241,93.984c0-7.466,3.154-13.3,9.467-17.5c6.312-4.198,15.018-6.299,26.113-6.299
			c4.721,0,9.293,0.296,13.719,0.887c-0.297-6.356-2.029-10.914-5.201-13.674c-3.17-2.759-8.371-4.139-15.598-4.139
			c-6.555,0-13.527,1.256-20.92,3.769V45.202c7.143-2.709,14.756-4.065,22.836-4.065c10.531,0,18.662,2.723,24.396,8.167
			c5.736,5.445,8.604,13.267,8.604,23.467v21.803c0,1.626-0.162,3.241-0.482,4.842c-0.322,1.602-1.088,3.658-2.301,6.171
			c-1.211,2.514-2.855,4.706-4.932,6.578c-2.076,1.873-5.191,3.486-9.346,4.842c-4.154,1.354-8.951,2.032-14.391,2.032
			c-5.574,0-10.457-0.704-14.65-2.112c-4.193-1.409-7.35-3.052-9.471-4.93s-3.811-4.102-5.068-6.672
			c-1.26-2.569-2.035-4.694-2.332-6.375C429.389,97.271,429.241,95.614,429.241,93.984z M443.063,93.836
			c0,8.524,6.047,12.786,18.143,12.786c0.049,0,0.123,0,0.223,0c11.408,0,17.111-4.091,17.111-12.271V82.153
			c-3.639-0.587-8.016-0.906-13.129-0.955c-2.016,0-4.131,0.184-6.344,0.551s-4.598,0.943-7.154,1.728s-4.672,2.082-6.344,3.894
			C443.897,89.183,443.063,91.338,443.063,93.836z"/>
		<path fill="#36A9E1" d="M498.172,79.133c0-7.49,1.035-13.859,3.106-19.108c2.072-5.249,4.896-9.179,8.472-11.791
			c3.575-2.612,7.237-4.447,10.985-5.507c3.749-1.059,7.793-1.589,12.133-1.589c5.458,0,10.844,0.749,16.154,2.244V13.717h13.821
			V94.61c0,1.624-0.16,3.235-0.48,4.834c-0.319,1.6-1.083,3.654-2.289,6.163c-1.205,2.51-2.842,4.699-4.909,6.569
			s-5.144,3.48-9.229,4.834c-4.086,1.353-8.834,2.029-14.248,2.029c-2.91,0-5.71-0.247-8.398-0.739s-5.623-1.601-8.805-3.325
			c-3.182-1.724-5.907-3.965-8.175-6.725c-2.27-2.759-4.193-6.639-5.771-11.64C498.962,91.611,498.172,85.785,498.172,79.133z
			 M511.994,79.133c0,5.831,0.554,10.67,1.66,14.517s2.691,6.652,4.758,8.416c2.064,1.765,4.105,2.964,6.122,3.602
			c2.016,0.638,4.4,0.955,7.155,0.955c11.604,0,17.383-3.749,17.334-11.246V56.715c-5.114-2.106-10.5-3.161-16.154-3.161
			c-3,0-5.618,0.294-7.856,0.882c-2.237,0.588-4.413,1.715-6.528,3.38c-2.114,1.667-3.724,4.276-4.83,7.829
			C512.547,69.198,511.994,73.695,511.994,79.133z"/>
		<path fill="#36A9E1" d="M566.44,42.32h14.782l21.212,58.907l21.36-58.907h14.782l-29.047,75.537h-14.19L566.44,42.32z"/>
		<path fill="#36A9E1" d="M644.906,30.642V16.008h14.709v14.634H644.906z M645.35,117.857V42.32h13.821v75.537H645.35z"/>
		<path fill="#36A9E1" d="M668.679,63.653c0-6.25,2.229-11.565,6.688-15.945c4.459-4.379,11.271-6.57,20.437-6.57
			c6.832,0,13.567,1.651,20.204,4.952v11.961c-6.536-2.997-12.704-4.496-18.504-4.496c-10.004,0-15.004,3.219-15.004,9.656
			c0,2.113,1.33,3.87,3.991,5.27c2.66,1.401,5.863,2.63,9.608,3.686c3.744,1.057,7.493,2.334,11.249,3.833s6.971,4.017,9.646,7.555
			s4.013,7.911,4.013,13.119c0,6.093-2.285,11.344-6.856,15.753c-4.57,4.409-11.646,6.614-21.229,6.614
			c-8.081,0-15.349-1.771-21.804-5.312v-12.634c6.553,3.687,13.526,5.528,20.917,5.528c0.099,0,0.196,0,0.296,0
			c4.828,0,8.511-0.872,11.05-2.616c2.537-1.743,3.806-3.968,3.806-6.671c0-3.096-1.318-5.589-3.954-7.48
			c-2.637-1.892-5.852-3.366-9.646-4.423c-3.794-1.056-7.575-2.234-11.345-3.537c-3.77-1.302-6.973-3.464-9.608-6.486
			C669.997,72.388,668.679,68.468,668.679,63.653z"/>
		<path fill="#36A9E1" d="M726.758,99.666c-2.127-5.358-3.191-11.858-3.191-19.504c0-7.644,1.064-14.146,3.191-19.504
			s5.022-9.371,8.685-12.038c3.662-2.667,7.41-4.556,11.246-5.667c3.834-1.111,8.027-1.667,12.577-1.667s8.742,0.557,12.577,1.667
			s7.583,3,11.245,5.667c3.662,2.667,6.558,6.68,8.685,12.038s3.192,11.861,3.192,19.504c0,7.646-1.065,14.146-3.192,19.504
			s-5.022,9.372-8.685,12.038c-3.662,2.668-7.41,4.558-11.245,5.669c-3.835,1.109-8.027,1.666-12.577,1.666
			s-8.743-0.557-12.577-1.666c-3.836-1.111-7.584-3.001-11.246-5.669C731.781,109.038,728.885,105.025,726.758,99.666z
			 M739.344,66.235c-1.106,3.65-1.66,8.293-1.66,13.928c0,5.636,0.554,10.278,1.66,13.929c1.105,3.65,2.767,6.357,4.98,8.122
			c2.213,1.765,4.451,2.94,6.714,3.528s5.006,0.881,8.228,0.881s5.964-0.293,8.228-0.881c2.262-0.588,4.5-1.764,6.714-3.528
			c2.213-1.765,3.873-4.472,4.979-8.122s1.661-8.293,1.661-13.929c0-5.635-0.555-10.277-1.661-13.928
			c-1.106-3.65-2.767-6.357-4.979-8.122c-2.214-1.765-4.452-2.94-6.714-3.528c-2.264-0.588-5.006-0.882-8.228-0.882
			s-5.965,0.294-8.228,0.882s-4.501,1.763-6.714,3.528C742.111,59.877,740.45,62.584,739.344,66.235z"/>
		<path fill="#36A9E1" d="M802.478,117.857v-69.18c12.613-5.026,24.882-7.539,36.807-7.539V53.85
			c-7.513,0.099-15.176,1.158-22.985,3.178v60.829H802.478z"/>
	</g>
	<g>
		<g>
			<path fill-rule="evenodd" clip-rule="evenodd" fill="#36A9E1" d="M53.804,71.423c7.113-4.457,29.308-36.737,29.7-36.447
				c0.775,0.572-23.554,36.92-22.79,37.455c17.216,12.048,30.12,14.644,37.82,23.894c6.665-8.895,10.615-19.943,10.615-31.914
				c0-29.421-23.851-48.057-53.272-48.057c-9.833,0-19.044,2.082-26.95,5.952c-1.105,0.541-2.184,1.117-3.237,1.727
				C11.746,32.116,2.605,46.197,2.605,64.41c0,12.239,4.138,23.506,11.077,32.501C24.489,82.753,46.187,76.195,53.804,71.423z"/>
		</g>
		<g>
			<g>
				<g>
					<path fill-rule="evenodd" clip-rule="evenodd" fill="#453F42" d="M45.265,121.423c4.234-0.021,9.899-2.517,10.391-6.723
						s-2.489-8.566-6.723-8.506c-7.615,0.107-18.926,11.694-26.792,0.785C24.477,118.744,34.406,121.476,45.265,121.423z"/>
				</g>
			</g>
			<g>
				<g>
					<path fill-rule="evenodd" clip-rule="evenodd" fill="#453F42" d="M64.132,121.423c-4.234-0.021-9.899-2.517-10.391-6.723
						s2.489-8.566,6.723-8.506c7.615,0.107,18.926,11.694,26.792,0.785C84.919,118.744,74.991,121.476,64.132,121.423z"/>
				</g>
			</g>
		</g>
		<g>
			<g>
				<ellipse fill-rule="evenodd" clip-rule="evenodd" fill="#453F42" cx="54.841" cy="84.4" rx="1.575" ry="3.725"/>
			</g>
		</g>
	</g>
</g>
</svg>
